<svg version="1" xmlns="http://www.w3.org/2000/svg" width="1309.333" height="1309.333" viewBox="0 0 982.000000 982.000000"><path d="M101.5 1.1c-25.3 3.7-48 15.2-66.6 33.8C16 53.9 4.8 76.2 1 102.5c-1.3 9.6-1.3 767.4 0 777 3.8 26.3 15 48.6 33.9 67.6 19 18.9 41.3 30.1 67.6 33.9 9.6 1.3 767.4 1.3 777 0 26.3-3.8 48.6-15 67.6-33.9 18.9-19 30.1-41.3 33.9-67.6 1.3-9.6 1.3-767.4 0-777-3.8-26.3-15-48.6-33.9-67.6C928.1 16 905.8 4.8 879.5 1c-8.8-1.2-769.4-1.1-778 .1zm434.4 188.5c52 5.6 95.8 24.8 128.4 56.3 20.6 19.9 34.7 40.8 46 68.1 6.9 16.7 13.2 40.7 15.7 59.1.6 4.6 1.3 9.9 1.7 11.6l.5 3.3H611.1l-.5-3.3c-4.1-28.3-6.4-37.4-12.6-50.4-8.7-18.5-19.5-29.8-36.3-38.2-16.9-8.5-34.8-12.1-60.7-12.1-23 0-38.2 3.2-54.2 11.4-18.7 9.5-31.4 22.6-42.1 43.3-17.4 33.7-23.9 79.5-22.3 157.3 1.1 53.7 4.6 80.4 14.2 108.1 7 20.2 13.7 31.4 26.8 44.5 15.5 15.4 32.3 23.1 58.1 26.5 11.1 1.4 36.5.6 48.7-1.6 39.1-7.1 63.1-28.1 73.7-64.5 2.5-8.6 6.1-28.1 6.1-32.9 0-.8 15.9-1.1 58.5-1.1H727v2.5c0 4.8-3.2 25.2-5.6 36.3-13.4 60.3-51.2 107.7-106.9 134.3-15.1 7.2-25.5 10.8-43.6 15.3-44.9 11.1-98 11.1-139.9.2-35.7-9.3-64.2-25.3-90.6-50.9-33.4-32.3-56.3-75.4-67.8-127.7-6.7-30.5-7.7-42.6-8.3-95.8-.6-57.8.5-74.8 7.2-107.7 12.1-59.3 40.8-110.6 80-143.3 48-40.1 110.6-56.6 184.4-48.6z"/></svg>