<?xml version="1.0" encoding="UTF-8"?>
<svg width="1440px" height="899px" viewBox="0 0 1440 899" version="1.1" xmlns="http://www.w3.org/2000/svg" xmlns:xlink="http://www.w3.org/1999/xlink">
    <!-- Generator: Sketch 52.1 (67048) - http://www.bohemiancoding.com/sketch -->
    <title>Background</title>
    <desc>Created with Sketch.</desc>
    <g id="Page-1" stroke="none" stroke-width="1" fill="none" fill-rule="evenodd">
        <g id="Login-(Blue-mode)" fill-rule="nonzero">
            <g id="Login-page" transform="translate(0.000000, -854.000000)">
                <g id="Background" transform="translate(0.000000, 853.000000)">
                    <rect fill="#FFFFFF" x="0" y="0" width="1440" height="899"></rect>
                    <path d="M634,94 C694.893856,157.844089 746.584374,235.083083 789.071554,325.716985 C852.802323,461.667837 598.062516,605.393857 715.062516,973.992161 C753.794818,1096.0149 640.968878,1195.27446 685.728587,1313.86242 C708.915939,1375.29581 832.457174,1394.68224 813.728587,1483.85912 C811.31866,1495.33408 803.908544,1508.71437 791.498239,1524 L634,1524 L634,268.807755 L634,94 Z" id="Path-1" fill="#3D2681" opacity="0.538109189" transform="translate(724.826722, 809.000000) rotate(270.000000) translate(-724.826722, -809.000000) "></path>
                    <path d="M789.071554,128.104373 C852.802323,264.055225 598.062516,407.781245 715.062516,776.379549 C753.794818,898.402291 640.968878,997.661846 685.728587,1116.24981 C708.915939,1177.6832 795.546052,1287.77314 789.071554,1365.94121 C784.755222,1418.05327 751.73137,1476.40619 690,1541 L641,1541 L641,101 L775.507208,101 C781.564879,112.701478 786.086327,121.736269 789.071554,128.104373 Z" id="Path-2" fill="#3D2681" opacity="0.62702753" transform="translate(720.236774, 821.000000) rotate(270.000000) translate(-720.236774, -821.000000) "></path>
                </g>
            </g>
        </g>
    </g>
</svg>