<?xml version="1.0" encoding="UTF-8"?>
<svg width="1438px" height="866px" viewBox="0 0 1438 866" version="1.1" xmlns="http://www.w3.org/2000/svg" xmlns:xlink="http://www.w3.org/1999/xlink">
    <!-- Generator: Sketch 52.1 (67048) - http://www.bohemiancoding.com/sketch -->
    <title>Background</title>
    <desc>Created with Sketch.</desc>
    <g id="Page-1" stroke="none" stroke-width="1" fill="none" fill-rule="evenodd">
        <g id="Login-(Blue-mode)" transform="translate(-2.000000, 0.000000)" fill-rule="nonzero">
            <g id="Login-page" transform="translate(2.000000, -854.000000)">
                <g id="Background" transform="translate(0.000000, 821.000000)">
                    <rect fill="#FFFFFF" x="0" y="0" width="1440" height="899"></rect>
                    <path d="M634,93 C695.010029,156.844089 746.799161,234.083083 789.367397,324.716985 C853.219751,460.667837 597.993955,604.393857 715.217166,972.992161 C754.023362,1095.0149 640.982173,1194.27446 685.827274,1312.86242 C709.058862,1374.29581 832.835788,1393.68224 814.071471,1482.85912 C811.656946,1494.33408 804.232693,1507.71437 791.798712,1523 L634,1523 L634,267.807755 L634,93 Z" id="Path-1" fill="#3D2681" opacity="0.538109189" transform="translate(725.000000, 808.000000) rotate(270.000000) translate(-725.000000, -808.000000) "></path>
                    <path d="M788.629089,127.104373 C852.169419,263.055225 598.190822,406.781245 714.841204,775.379549 C753.457767,897.402291 640.968971,996.661846 685.59493,1115.24981 C708.712993,1176.6832 795.08424,1286.77314 788.629089,1364.94121 C784.325654,1417.05327 751.400484,1475.40619 689.853579,1540 L641,1540 L641,100 L775.105276,100 C781.144845,111.701478 785.652782,120.736269 788.629089,127.104373 Z" id="Path-2" fill="#3D2681" opacity="0.62702753" transform="translate(720.000000, 820.000000) rotate(270.000000) translate(-720.000000, -820.000000) "></path>
                </g>
            </g>
        </g>
    </g>
</svg>