<?xml version="1.0" encoding="UTF-8"?>
<svg width="1440px" height="898px" viewBox="0 0 1440 898" version="1.1" xmlns="http://www.w3.org/2000/svg" xmlns:xlink="http://www.w3.org/1999/xlink">
    <!-- Generator: Sketch 52.1 (67048) - http://www.bohemiancoding.com/sketch -->
    <title>Background</title>
    <desc>Created with Sketch.</desc>
    <g id="Page-1" stroke="none" stroke-width="1" fill="none" fill-rule="evenodd">
        <g id="Login-(Blue-mode)" fill-rule="nonzero">
            <g id="Login-page" transform="translate(0.000000, -854.000000)">
                <g id="Background" transform="translate(0.000000, 853.000000)">
                    <rect fill="#192466" x="0" y="0" width="1440" height="899"></rect>
                    <path d="M634.173278,92.8267219 C695.067135,156.67081 746.757652,233.909805 789.244832,324.543707 C852.975601,460.494559 598.235794,604.220579 715.235794,972.818883 C753.968097,1094.84163 641.142156,1194.10118 685.901865,1312.68914 C709.089217,1374.12254 832.630452,1393.50896 813.901865,1482.68584 C811.491938,1494.1608 804.081822,1507.5411 791.671517,1522.82672 L634.173278,1522.82672 L634.173278,267.634477 L634.173278,92.8267219 Z" id="Path-1" fill="#3D2681" opacity="0.538109189" transform="translate(725.000000, 807.826722) rotate(270.000000) translate(-725.000000, -807.826722) "></path>
                    <path d="M788.83478,126.341147 C852.565549,262.291999 597.825742,406.018019 714.825742,774.616323 C753.558044,896.639065 640.732104,995.89862 685.491813,1114.48658 C708.679164,1175.91998 795.309278,1286.00991 788.83478,1364.17799 C784.518447,1416.29004 751.494596,1474.64297 689.763226,1539.23677 L640.763226,1539.23677 L640.763226,99.2367741 L775.270434,99.2367741 C781.328104,110.938253 785.849553,119.973044 788.83478,126.341147 Z" id="Path-2" fill="#3D2681" opacity="0.62702753" transform="translate(720.000000, 819.236774) rotate(270.000000) translate(-720.000000, -819.236774) "></path>
                </g>
            </g>
        </g>
    </g>
</svg>