<svg id="Layer_1" data-name="Layer 1" xmlns="http://www.w3.org/2000/svg" viewBox="0 0 3418.43 661.56"><defs><style>.cls-1{fill:#1f1c18;}</style></defs><title>creativedaylogo</title><path class="cls-1" d="M491.49,2090.67q41.91,0,70.25-23.64t30.68-61.19H631a113.63,113.63,0,0,1-20.79,60.52q-19.11,27.33-50.8,42.75a153.12,153.12,0,0,1-67.9,15.42q-71.42,0-113.16-49.62t-41.75-133.45v-12.07q0-53.66,18.78-94.89t53.81-63.71q35-22.47,82-22.47,59.67,0,98.41,35.55T631,1877.42H592.42q-2.68-42.59-30.68-68.74t-70.58-26.16q-54.33,0-84.33,39.23t-30,110v11.74q0,69.4,30,108.3T491.49,2090.67Z" transform="translate(-336.58 -1602.8)"/><path class="cls-1" d="M878.77,1789.23a150.35,150.35,0,0,0-27.16-2.35q-37.56,0-63.54,21T751,1868.7v249.13h-39.9V1755h39.23l.67,57.67q31.85-64.38,102.27-64.38,16.76,0,26.48,4.36Z" transform="translate(-336.58 -1602.8)"/><path class="cls-1" d="M1076.26,2124.53q-46.26,0-83.66-22.8t-58.17-63.54q-20.79-40.74-20.79-91.37v-14.41q0-52.32,20.29-94.23t56.49-65.88q36.23-24,78.47-24,66,0,104.78,45.1t38.73,123.23v22.46H953.54v7.71q0,61.71,35.38,102.77t89,41.08q32.19,0,56.83-11.74t44.77-37.55l25.14,19.11Q1160.43,2124.54,1076.26,2124.53Zm-7.37-342q-45.27,0-76.29,33.2t-37.72,89.19H1172.5v-4.36q-1.7-52.3-29.85-85.17T1068.89,1782.52Z" transform="translate(-336.58 -1602.8)"/><path class="cls-1" d="M1519.54,2117.83q-6-17.1-7.72-50.63a139.83,139.83,0,0,1-53.81,42.41,164.82,164.82,0,0,1-69.24,14.92q-52.32,0-84.67-29.17t-32.35-73.76q0-53,44.09-83.83t122.89-30.85h72.76v-41.24q0-38.9-24-61.19t-69.91-22.3q-41.91,0-69.41,21.46t-27.49,51.64l-40.24-.34q0-43.26,40.24-74.94t98.91-31.69q60.69,0,95.73,30.35t36.05,84.66V2035q0,52.63,11.06,78.79v4ZM1393.46,2089q40.24,0,71.92-19.45t46.11-52v-79.8h-71.76q-60,.68-93.88,22T1312,2018.24q0,30.52,22.64,50.63T1393.46,2089Z" transform="translate(-336.58 -1602.8)"/><path class="cls-1" d="M1720.72,1662.15V1755h75.11v32.86h-75.11v242q0,30.21,10.89,45t36.39,14.77q10.05,0,32.52-3.35l1.68,32.58q-15.77,5.64-42.92,5.64-41.25,0-60-24T1680.48,2030V1787.89h-66.73V1755h66.73v-92.88Z" transform="translate(-336.58 -1602.8)"/><path class="cls-1" d="M1876.63,1650.25a26.86,26.86,0,0,1,7.38-19.16q7.37-7.83,20.12-7.84t20.29,7.84a26.58,26.58,0,0,1,7.54,19.16,26,26,0,0,1-7.54,19q-7.55,7.66-20.29,7.66t-20.12-7.66A26.31,26.31,0,0,1,1876.63,1650.25Zm47.28,467.58h-40.23V1755h40.23Z" transform="translate(-336.58 -1602.8)"/><path class="cls-1" d="M2145.88,2062.5,2256.2,1755h41.24L2162,2117.83h-32.53L1993.32,1755h41.24Z" transform="translate(-336.58 -1602.8)"/><path class="cls-1" d="M2499.29,2124.53q-46.26,0-83.65-22.8t-58.18-63.54q-20.79-40.74-20.79-91.37v-14.41q0-52.32,20.29-94.23t56.5-65.88q36.21-24,78.46-24,66,0,104.78,45.1t38.73,123.23v22.46H2376.57v7.71q0,61.71,35.38,102.77t89,41.08q32.19,0,56.83-11.74t44.77-37.55l25.15,19.11Q2583.46,2124.54,2499.29,2124.53Zm-7.37-342q-45.27,0-76.28,33.2t-37.73,89.19h217.62v-4.36q-1.68-52.3-29.85-85.17T2491.92,1782.52Z" transform="translate(-336.58 -1602.8)"/><path class="cls-1" d="M2683.38,1933.75q0-84.82,38-135.13t104.11-50.3q53,0,87.52,39.57V1602.8h97.24v515h-87.52l-4.69-38.56q-36.21,45.27-93.21,45.26-64.05,0-102.78-50.46T2683.38,1933.75Zm96.9,7.21q0,51,17.77,78.25t51.64,27.2q44.92,0,63.37-38V1865.07q-18.11-38-62.7-38Q2780.27,1827.12,2780.28,1941Z" transform="translate(-336.58 -1602.8)"/><path class="cls-1" d="M3295.64,2117.83q-6.7-13.08-9.72-32.53-35.21,39.24-91.54,39.23-53.31,0-88.35-30.84t-35-77.79q0-57.68,42.75-88.52t123.56-31.19h44.59V1875.4q0-25.14-12.9-40.23t-40.74-15.09q-24.48,0-38.4,11.73T3175.94,1864H3079q0-31.51,19.44-58.34t55-42.08q35.54-15.25,79.81-15.26,67,0,106.45,33.7t39.4,94.72V2034q.33,51.64,14.42,78.13v5.7Zm-80.14-67.4a83.47,83.47,0,0,0,39.57-9.55q18.1-9.57,26.82-25.66v-62.36h-36.21q-72.76,0-77.45,50.29l-.34,5.7q0,18.11,12.74,29.85T3215.5,2050.43Z" transform="translate(-336.58 -1602.8)"/><path class="cls-1" d="M3584,1980.69,3651.06,1755h104l-145.86,419.13-8.05,19.11q-32.52,71.08-107.29,71.09a152.7,152.7,0,0,1-42.92-6.37v-73.44l14.75.34q27.49,0,41.08-8.38t21.29-27.83l11.4-29.85L3412.33,1755h104.28Z" transform="translate(-336.58 -1602.8)"/></svg>